<?xml version="1.0" encoding="utf-8"?>
<svg version="1.1" xmlns="http://www.w3.org/2000/svg" xmlns:xlink="http://www.w3.org/1999/xlink" x="0px" y="0px"
	 viewBox="0 0 118 38" style="enable-background:new 0 0 118 38;" xml:space="preserve">
<g fill="#0058cc">
	<path d="M99,3.5c1.4,0,2.7,0.5,3.6,1.5l10.3,10.3c2,2,2,5.3,0,7.3L102.6,33c-1,1-2.3,1.5-3.6,1.5H8.7
		c-2.8,0-5.2-2.3-5.2-5.2V8.7c0-2.8,2.3-5.2,5.2-5.2H99 M99,1H8.7C4.5,1,1,4.4,1,8.7v20.6C1,33.6,4.5,37,8.7,37H99
		c2.1,0,4-0.8,5.5-2.3l10.3-10.3c3-3,3-7.9,0-10.9L104.4,3.2C103,1.8,101,1,99,1L99,1z"/>
	<g>
		<path d="M15.3,23.7c-0.9-0.9-1.4-2.1-1.4-3.6c0-0.4,0-0.9,0-1.7c0-0.8,0-1.4,0-1.7c0-1.5,0.5-2.7,1.4-3.6
			c0.9-0.9,2.1-1.3,3.7-1.3c1.1,0,2,0.2,2.8,0.6c0.8,0.4,1.3,0.9,1.7,1.4c0.4,0.5,0.6,1.1,0.6,1.5v0c0,0.1,0,0.2-0.1,0.2
			c-0.1,0.1-0.2,0.1-0.3,0.1h-1c-0.1,0-0.2,0-0.2-0.1c-0.1,0-0.1-0.1-0.2-0.3c-0.2-0.6-0.6-1.1-1.1-1.5c-0.5-0.4-1.2-0.6-2.1-0.6
			c-1,0-1.8,0.3-2.4,0.8c-0.6,0.6-0.9,1.4-0.9,2.6c0,0.4,0,0.9,0,1.6c0,0.7,0,1.3,0,1.6c0,1.2,0.4,2.1,0.9,2.6
			c0.6,0.6,1.4,0.8,2.4,0.8c1,0,1.9-0.3,2.5-0.9c0.6-0.6,0.9-1.4,0.9-2.6v-0.8h-2.8c-0.1,0-0.2,0-0.3-0.1c-0.1-0.1-0.1-0.2-0.1-0.3
			v-0.6c0-0.1,0-0.2,0.1-0.3c0.1-0.1,0.2-0.1,0.3-0.1h4.1c0.1,0,0.2,0,0.3,0.1c0.1,0.1,0.1,0.2,0.1,0.3V20c0,1-0.2,1.9-0.6,2.6
			c-0.4,0.8-1,1.3-1.8,1.8C21,24.8,20.1,25,19,25C17.4,25,16.2,24.5,15.3,23.7z"/>
		<path d="M27.3,23.8C26.5,23,26.1,22,26,20.6l0-0.6l0-0.6c0.1-1.3,0.5-2.4,1.2-3.2c0.8-0.8,1.8-1.2,3-1.2
			c1.4,0,2.4,0.4,3.1,1.3c0.7,0.9,1.1,2,1.1,3.5v0.3c0,0.1,0,0.2-0.1,0.3c-0.1,0.1-0.2,0.1-0.3,0.1h-6.4v0.2c0,0.8,0.3,1.5,0.7,2.1
			c0.5,0.6,1.1,0.8,1.8,0.8c0.6,0,1-0.1,1.4-0.3c0.4-0.2,0.6-0.5,0.8-0.7c0.1-0.1,0.2-0.2,0.3-0.3c0.1,0,0.2,0,0.3,0h0.8
			c0.1,0,0.2,0,0.3,0.1c0.1,0.1,0.1,0.1,0.1,0.2c0,0.3-0.2,0.6-0.5,1c-0.3,0.4-0.8,0.7-1.4,1c-0.6,0.3-1.3,0.4-2.1,0.4
			C29,25,28,24.6,27.3,23.8z M32.9,19.3L32.9,19.3c0-0.9-0.2-1.6-0.7-2.2c-0.5-0.5-1.1-0.8-1.9-0.8c-0.8,0-1.4,0.3-1.9,0.8
			c-0.5,0.5-0.7,1.2-0.7,2.1v0.1H32.9z"/>
		<path d="M37.4,23.8c-0.7-0.8-1.1-1.8-1.2-3l0-0.8l0-0.8c0-1.3,0.4-2.3,1.2-3c0.7-0.8,1.8-1.1,3.1-1.1
			c1.3,0,2.4,0.4,3.1,1.1c0.7,0.8,1.1,1.8,1.2,3c0,0.3,0,0.5,0,0.8c0,0.3,0,0.5,0,0.8c0,1.3-0.4,2.3-1.2,3c-0.7,0.8-1.8,1.1-3.1,1.1
			C39.2,25,38.1,24.6,37.4,23.8z M42.4,22.9c0.5-0.5,0.7-1.2,0.7-2.2c0-0.1,0-0.4,0-0.7c0-0.3,0-0.6,0-0.7c0-0.9-0.3-1.7-0.7-2.2
			c-0.5-0.5-1.1-0.7-1.9-0.7c-0.8,0-1.4,0.2-1.9,0.7c-0.5,0.5-0.7,1.2-0.7,2.2l0,0.7l0,0.7c0,0.9,0.3,1.7,0.7,2.2
			c0.5,0.5,1.1,0.7,1.9,0.7C41.3,23.6,41.9,23.4,42.4,22.9z"/>
		<path d="M47.2,24.7c-0.1-0.1-0.1-0.2-0.1-0.3v-12c0-0.1,0-0.2,0.1-0.3c0.1-0.1,0.2-0.1,0.3-0.1h5
			c1.5,0,2.7,0.4,3.5,1.1c0.8,0.7,1.3,1.7,1.3,3.1c0,1.3-0.4,2.3-1.3,3s-2,1-3.5,1h-2.7v4.3c0,0.1,0,0.2-0.1,0.3
			c-0.1,0.1-0.2,0.1-0.3,0.1h-1.8C47.4,24.8,47.3,24.8,47.2,24.7z M52.4,18c0.7,0,1.3-0.2,1.6-0.5c0.4-0.3,0.6-0.8,0.6-1.5
			c0-0.6-0.2-1.1-0.5-1.5c-0.4-0.4-0.9-0.5-1.7-0.5h-2.7v4H52.4z"/>
		<path d="M59.7,24.6c-0.5-0.3-0.9-0.6-1.2-1c-0.3-0.4-0.5-0.9-0.5-1.4c0-0.8,0.3-1.5,1-2c0.7-0.5,1.6-0.9,2.8-1.1
			l2.5-0.4v-0.4c0-0.5-0.1-0.9-0.4-1.2c-0.3-0.3-0.7-0.4-1.3-0.4c-0.4,0-0.7,0.1-1,0.2c-0.2,0.1-0.4,0.3-0.6,0.5
			c-0.2,0.2-0.3,0.3-0.3,0.3c0,0.1-0.1,0.2-0.3,0.2h-1.4c-0.1,0-0.2,0-0.3-0.1c-0.1-0.1-0.1-0.2-0.1-0.3c0-0.3,0.2-0.7,0.5-1
			c0.3-0.4,0.7-0.7,1.3-1c0.6-0.3,1.3-0.4,2.2-0.4c1.5,0,2.5,0.3,3.2,1c0.7,0.7,1,1.5,1,2.6v5.8c0,0.1,0,0.2-0.1,0.3
			c-0.1,0.1-0.2,0.1-0.3,0.1h-1.5c-0.1,0-0.2,0-0.3-0.1c-0.1-0.1-0.1-0.2-0.1-0.3v-0.7c-0.3,0.4-0.7,0.7-1.1,1
			c-0.5,0.3-1.1,0.4-1.8,0.4C60.8,25,60.2,24.9,59.7,24.6z M63.7,22.6c0.4-0.4,0.6-1.1,0.6-1.9v-0.4l-1.8,0.3
			c-1.4,0.2-2.1,0.7-2.1,1.4c0,0.4,0.2,0.7,0.5,0.9c0.3,0.2,0.7,0.3,1.2,0.3C62.7,23.2,63.3,23,63.7,22.6z"/>
		<path d="M70.7,28.3c-0.7-0.4-1.2-0.8-1.4-1.2c-0.3-0.5-0.4-0.9-0.4-1.2c0-0.1,0-0.2,0.1-0.3c0.1-0.1,0.2-0.1,0.3-0.1
			h1.6c0.1,0,0.2,0,0.3,0.1c0.1,0.1,0.1,0.2,0.2,0.3c0.1,0.3,0.3,0.6,0.6,0.8c0.3,0.2,0.7,0.3,1.3,0.3c0.7,0,1.3-0.2,1.6-0.5
			c0.3-0.3,0.5-0.9,0.5-1.7v-1.3c-0.7,0.8-1.6,1.2-2.8,1.2c-1.3,0-2.2-0.4-2.9-1.2c-0.6-0.8-1-1.8-1-3.2l0-0.5l0-0.5
			c0-1.3,0.4-2.4,1.1-3.2c0.7-0.8,1.6-1.2,2.9-1.2c0.7,0,1.2,0.1,1.7,0.4c0.5,0.2,0.9,0.6,1.2,1v-0.7c0-0.1,0-0.2,0.1-0.3
			c0.1-0.1,0.2-0.1,0.3-0.1h1.5c0.1,0,0.2,0,0.3,0.1c0.1,0.1,0.1,0.2,0.1,0.3l0,8.9c0,1.4-0.4,2.4-1.1,3.2c-0.8,0.8-1.9,1.1-3.5,1.1
			C72.3,28.9,71.4,28.7,70.7,28.3z M74.8,22.1c0.3-0.4,0.5-1,0.6-1.6c0-0.1,0-0.3,0-0.6c0-0.3,0-0.5,0-0.6c0-0.6-0.2-1.2-0.6-1.6
			C74.5,17.2,74,17,73.3,17c-1.3,0-2,0.8-2.1,2.4l0,0.4c0,1.9,0.7,2.9,2.1,2.9C74,22.8,74.5,22.6,74.8,22.1z"/>
		<path d="M81.1,23.9c-0.8-0.7-1.2-1.8-1.3-3.1l0-0.8l0-0.8c0.1-1.3,0.5-2.3,1.3-3.1c0.8-0.7,1.9-1.1,3.3-1.1
			c1.4,0,2.5,0.4,3.3,1.1c0.8,0.7,1.2,1.8,1.3,3.1c0,0.1,0,0.4,0,0.8c0,0.4,0,0.7,0,0.8c-0.1,1.3-0.5,2.3-1.3,3.1
			C87,24.6,85.9,25,84.5,25C83,25,81.9,24.6,81.1,23.9z M86,22.5c0.4-0.4,0.5-1,0.6-1.8c0-0.1,0-0.4,0-0.7c0-0.4,0-0.6,0-0.7
			c0-0.8-0.2-1.4-0.6-1.8c-0.4-0.4-0.9-0.6-1.5-0.6c-0.7,0-1.2,0.2-1.5,0.6c-0.4,0.4-0.5,1-0.6,1.8l0,0.7l0,0.7
			c0,0.8,0.2,1.4,0.6,1.8c0.4,0.4,0.9,0.6,1.5,0.6C85.1,23.1,85.6,22.9,86,22.5z"/>
		<path d="M92.3,24.6c-0.6-0.3-1.1-0.6-1.4-1c-0.3-0.4-0.5-0.7-0.5-1c0-0.1,0-0.2,0.1-0.3c0.1-0.1,0.2-0.1,0.3-0.1h1.5
			c0.1,0,0.2,0,0.3,0.1c0.1,0,0.2,0.2,0.4,0.4c0.2,0.2,0.5,0.3,0.7,0.4c0.3,0.1,0.6,0.2,0.9,0.2c0.5,0,0.9-0.1,1.2-0.3
			c0.3-0.2,0.5-0.5,0.5-0.8c0-0.2-0.1-0.4-0.2-0.6c-0.1-0.2-0.4-0.3-0.8-0.4c-0.4-0.1-0.9-0.3-1.6-0.4c-1-0.2-1.8-0.6-2.3-1
			c-0.5-0.5-0.7-1.1-0.7-1.8c0-0.5,0.1-1,0.4-1.4c0.3-0.4,0.7-0.8,1.3-1.1c0.6-0.3,1.3-0.4,2.1-0.4c0.8,0,1.6,0.1,2.2,0.4
			c0.6,0.3,1.1,0.6,1.4,1c0.3,0.4,0.5,0.7,0.5,1c0,0.1,0,0.2-0.1,0.3c-0.1,0.1-0.2,0.1-0.3,0.1h-1.4c-0.1,0-0.2,0-0.3-0.1
			c-0.1-0.1-0.2-0.2-0.4-0.3c-0.2-0.2-0.4-0.3-0.6-0.4c-0.2-0.1-0.5-0.1-0.8-0.1c-0.5,0-0.8,0.1-1.1,0.3c-0.2,0.2-0.4,0.5-0.4,0.8
			c0,0.2,0.1,0.4,0.2,0.6c0.1,0.1,0.4,0.3,0.7,0.4c0.4,0.1,0.9,0.3,1.6,0.4c2.2,0.4,3.3,1.4,3.3,2.9c0,0.9-0.4,1.6-1.1,2.1
			C97.1,24.7,96,25,94.6,25C93.7,25,92.9,24.8,92.3,24.6z"/>
	</g>
</g>
</svg>
